<svg xmlns="http://www.w3.org/2000/svg" width="128" height="128" viewBox="0 0 128 128">
  <!-- Pixel-art ship derived from ship1.png, rotated right and transparent background -->
  <g transform="rotate(90 64 64)">
    <g fill="#00d25a"> <!-- main bright green pixels -->
      <rect x="56" y="12" width="16" height="8" />
      <rect x="52" y="20" width="24" height="8" />
      <rect x="48" y="28" width="32" height="8" />
      <rect x="44" y="36" width="40" height="8" />
      <rect x="40" y="44" width="48" height="8" />
      <rect x="40" y="52" width="48" height="16" />
      <rect x="44" y="68" width="40" height="8" />
      <rect x="48" y="76" width="32" height="8" />
      <rect x="52" y="84" width="24" height="8" />
      <rect x="56" y="92" width="16" height="8" />
    </g>
    <g fill="#007a2f"> <!-- darker green shading -->
      <rect x="58" y="20" width="12" height="8" />
      <rect x="54" y="28" width="20" height="8" />
      <rect x="50" y="36" width="28" height="8" />
      <rect x="46" y="44" width="36" height="8" />
      <rect x="46" y="52" width="36" height="8" />
      <rect x="50" y="68" width="28" height="8" />
      <rect x="54" y="76" width="20" height="8" />
      <rect x="58" y="84" width="12" height="8" />
    </g>
    <g fill="#2cff6d"> <!-- highlights -->
      <rect x="60" y="28" width="8" height="8" />
      <rect x="60" y="44" width="8" height="8" />
    </g>
    <g fill="#001b06"> <!-- cockpit/accents -->
      <rect x="60" y="40" width="8" height="12" />
      <rect x="58" y="28" width="4" height="8" />
    </g>
    <!-- wings -->
    <g fill="#00d25a">
      <rect x="24" y="36" width="16" height="8" />
      <rect x="16" y="44" width="32" height="8" />
      <rect x="88" y="36" width="16" height="8" />
      <rect x="80" y="44" width="32" height="8" />
    </g>
    <g fill="#007a2f">
      <rect x="20" y="44" width="8" height="8" />
      <rect x="104" y="44" width="8" height="8" />
    </g>
  </g>
</svg>
